<svg width="16" height="16" viewBox="0 0 16 16" fill="none" xmlns="http://www.w3.org/2000/svg">
<path fill-rule="evenodd" clip-rule="evenodd" d="M8.00016 2.54543C4.9877 2.54543 2.54562 4.98752 2.54562 7.99998C2.54562 11.0124 4.9877 13.4545 8.00016 13.4545C11.0126 13.4545 13.4547 11.0124 13.4547 7.99998C13.4547 4.98752 11.0126 2.54543 8.00016 2.54543ZM1.3335 7.99998C1.3335 4.31808 4.31826 1.33331 8.00016 1.33331C11.6821 1.33331 14.6668 4.31808 14.6668 7.99998C14.6668 11.6819 11.6821 14.6666 8.00016 14.6666C4.31826 14.6666 1.3335 11.6819 1.3335 7.99998ZM8.00016 7.39392C8.33488 7.39392 8.60622 7.66526 8.60622 7.99998V10.4242C8.60622 10.7589 8.33488 11.0303 8.00016 11.0303C7.66544 11.0303 7.3941 10.7589 7.3941 10.4242V7.99998C7.3941 7.66526 7.66544 7.39392 8.00016 7.39392ZM8.00016 4.96968C7.66544 4.96968 7.3941 5.24102 7.3941 5.57574C7.3941 5.91046 7.66544 6.1818 8.00016 6.1818H8.00622C8.34094 6.1818 8.61228 5.91046 8.61228 5.57574C8.61228 5.24102 8.34094 4.96968 8.00622 4.96968H8.00016Z" fill="#5B7088"/>
</svg>
