<svg width="14" height="14" viewBox="0 0 14 14" fill="none" xmlns="http://www.w3.org/2000/svg">
<path d="M7.00033 13.2708C3.54116 13.2708 0.729492 10.4592 0.729492 7C0.729492 3.54083 3.54116 0.729166 7.00033 0.729166C10.4595 0.729166 13.2712 3.54083 13.2712 7C13.2712 10.4592 10.4595 13.2708 7.00033 13.2708ZM7.00033 1.60417C4.02533 1.60417 1.60449 4.025 1.60449 7C1.60449 9.975 4.02533 12.3958 7.00033 12.3958C9.97533 12.3958 12.3962 9.975 12.3962 7C12.3962 4.025 9.97533 1.60417 7.00033 1.60417Z" fill="#203855"/>
<path d="M6.17184 9.08833C6.05517 9.08833 5.94434 9.04167 5.86267 8.96L4.21184 7.30917C4.04267 7.14 4.04267 6.86 4.21184 6.69083C4.381 6.52167 4.661 6.52167 4.83017 6.69083L6.17184 8.0325L9.17017 5.03417C9.33934 4.865 9.61934 4.865 9.7885 5.03417C9.95767 5.20333 9.95767 5.48333 9.7885 5.6525L6.481 8.96C6.39934 9.04167 6.2885 9.08833 6.17184 9.08833Z" fill="#203855"/>
</svg>
